<svg width="3873" height="3873" viewBox="0 0 3873 3873" fill="none" xmlns="http://www.w3.org/2000/svg">
<g clip-path="url(#clip0_5300_155)">
<mask id="mask0_5300_155" style="mask-type:luminance" maskUnits="userSpaceOnUse" x="0" y="0" width="3873" height="3873">
<path d="M3873 0H0V3873H3873V0Z" fill="white"/>
</mask>
<g mask="url(#mask0_5300_155)">
<path fill-rule="evenodd" clip-rule="evenodd" d="M2398.2 2611.8C2438.4 2611.8 2471.1 2644.5 2471.1 2684.7C2471.1 2724.9 2438.4 2757.6 2398.2 2757.6C2358 2757.6 2325.3 2724.9 2325.3 2684.7C2325.2 2644.5 2358 2611.8 2398.2 2611.8ZM2854.8 1820.9C2814.6 1820.9 2781.9 1853.6 2781.9 1893.8C2781.9 1934 2814.6 1966.7 2854.8 1966.7C2895 1966.7 2927.7 1934 2927.7 1893.8C2927.7 1853.6 2895 1820.9 2854.8 1820.9ZM1028.3 1820.9C988.098 1820.9 955.398 1853.6 955.398 1893.8C955.398 1934 988.098 1966.7 1028.3 1966.7C1068.5 1966.7 1101.2 1934 1101.2 1893.8C1101.2 1853.6 1068.4 1820.9 1028.3 1820.9ZM1557.8 2684.8C1557.8 2644.6 1525.1 2611.9 1484.9 2611.9C1444.6 2611.9 1412 2644.6 1412 2684.8C1412 2725 1444.7 2757.7 1484.9 2757.7C1525.1 2757.7 1557.8 2725 1557.8 2684.8ZM2684.5 2924.2C2625.2 2924.2 2577 2972.4 2577 3031.7C2577 3091 2625.2 3139.2 2684.5 3139.2C2743.8 3139.2 2791.9 3091 2791.9 3031.7C2791.9 2972.4 2743.7 2924.2 2684.5 2924.2ZM1198.6 2924.2C1139.3 2924.2 1091 2972.4 1091 3031.7C1091 3091 1139.2 3139.2 1198.5 3139.2C1257.8 3139.2 1306 3091 1306 3031.7C1306.1 2972.4 1257.9 2924.2 1198.6 2924.2ZM2684.5 863.5C2743.8 863.5 2791.9 815.3 2791.9 756C2791.9 696.7 2743.7 648.5 2684.5 648.5C2625.2 648.5 2577 696.7 2577 756C2577 815.3 2625.1 863.5 2684.5 863.5ZM1198.6 863.5C1257.9 863.5 1306.1 815.3 1306.1 756C1306.1 696.7 1257.9 648.5 1198.6 648.5C1139.3 648.5 1091 696.7 1091 756C1091.1 815.2 1139.3 863.5 1198.6 863.5ZM1557.8 1102.9C1557.8 1062.7 1525.1 1030 1484.9 1030C1444.6 1030 1412 1062.7 1412 1102.9C1412 1143.1 1444.7 1175.8 1484.9 1175.8C1525.1 1175.8 1557.8 1143.1 1557.8 1102.9ZM2325.2 1102.9C2325.2 1143.1 2357.9 1175.8 2398.1 1175.8C2438.3 1175.8 2471 1143.1 2471 1102.9C2471 1062.7 2438.3 1030 2398.1 1030C2358 1030 2325.2 1062.7 2325.2 1102.9ZM2517.9 2981.9C2513.1 2997.7 2510.7 3014.3 2510.7 3031.7C2510.7 3049 2513.3 3065.7 2517.9 3081.5H2193.4C2106.7 3081.5 2036.2 3011 2036.2 2924.3V2684.8C2036.2 2673.9 2039.7 2663.9 2045.6 2655.7H1837.3C1843.2 2663.9 1846.7 2673.9 1846.7 2684.8V2924.3C1846.7 3011 1776.2 3081.5 1689.4 3081.5H1621H1364.9C1369.7 3065.7 1372.1 3049.1 1372.1 3031.7C1372.1 3014.4 1369.5 2997.7 1364.8 2981.9H1689.3C1721.1 2981.9 1747 2956 1747 2924.2V2684.7C1747 2673.8 1750.5 2663.8 1756.4 2655.6H1612.4C1599.2 2597.3 1546.9 2553.6 1484.6 2553.6C1471.1 2553.6 1458.1 2555.6 1445.9 2559.4L1117.1 1989.8C1143 1965.8 1159.1 1931.6 1159.1 1893.7C1159.1 1855.8 1142.9 1821.6 1117.1 1797.6L1445.9 1228C1458.2 1231.8 1471.2 1233.8 1484.7 1233.8C1547 1233.8 1599.3 1190.1 1612.5 1131.8H1756.5C1750.6 1123.6 1747.1 1113.6 1747.1 1102.7V863.3C1747.1 831.5 1721.2 805.6 1689.4 805.6H1365C1369.8 789.8 1372.2 773.2 1372.2 755.8C1372.2 738.4 1369.6 721.8 1365 706H1689.5C1776.2 706 1846.7 776.5 1846.7 863.2V1102.7C1846.7 1113.6 1843.2 1123.6 1837.3 1131.8H2045.6C2039.7 1123.6 2036.2 1113.6 2036.2 1102.7V863.3C2036.2 776.6 2106.7 706.1 2193.4 706.1H2517.9C2513.1 721.9 2510.7 738.5 2510.7 755.9C2510.7 773.3 2513.3 789.9 2518 805.7H2193.5C2161.7 805.7 2135.8 831.6 2135.8 863.4V1102.9C2135.8 1113.8 2132.3 1123.8 2126.4 1132H2270.4C2283.6 1190.3 2336 1234 2398.2 1234C2411.6 1234 2424.7 1232 2436.9 1228.2L2765.8 1797.8C2739.9 1821.8 2723.8 1856 2723.8 1893.9C2723.8 1931.8 2740 1966 2765.8 1990L2436.9 2559.6C2424.6 2555.8 2411.6 2553.8 2398.2 2553.8C2335.9 2553.8 2283.7 2597.5 2270.4 2655.8H2126.4C2132.3 2664 2135.8 2674 2135.8 2684.9V2924.4C2135.8 2956.2 2161.7 2982.1 2193.5 2982.1H2517.9V2981.9ZM1941.6 2403.2C2222.5 2403.2 2451 2174.7 2451 1893.8C2451 1612.9 2222.6 1384.4 1941.6 1384.4C1660.7 1384.4 1432.1 1612.9 1432.1 1893.8C1432.1 2174.8 1660.6 2403.2 1941.6 2403.2ZM2384.7 1893.8C2384.7 2138.2 2185.9 2336.9 1941.6 2336.9C1697.3 2336.9 1498.4 2138.1 1498.4 1893.8C1498.4 1649.5 1697.2 1450.7 1941.6 1450.7C2186 1450.7 2384.7 1649.4 2384.7 1893.8ZM1800.5 1988.2L1650.9 1893.8L1800.5 1799.4C1814.1 1790.8 1818.2 1772.9 1809.6 1759.3C1801 1745.7 1783.1 1741.7 1769.5 1750.2L1581 1869.2C1572.6 1874.5 1567.4 1883.8 1567.4 1893.8C1567.4 1903.8 1572.5 1913 1581 1918.4L1769.5 2037.4C1774.3 2040.5 1779.7 2041.9 1785 2041.9C1794.6 2041.9 1804.1 2037.1 1809.6 2028.4C1818.1 2014.7 1814.1 1996.8 1800.5 1988.2ZM1981 1746.8C1965.5 1742.6 1949.6 1751.8 1945.4 1767.3L1881.6 2005.3C1877.4 2020.8 1886.6 2036.7 1902.2 2040.9C1904.8 2041.6 1907.2 2041.9 1909.7 2041.9C1922.5 2041.9 1934.3 2033.4 1937.8 2020.3L2001.5 1782.3C2005.7 1766.9 1996.5 1750.9 1981 1746.8ZM2315.7 1893.8C2315.7 1883.9 2310.6 1874.6 2302.2 1869.2L2113.7 1750.2C2100.1 1741.7 2082.2 1745.7 2073.7 1759.3C2065.2 1772.9 2069.2 1790.8 2082.8 1799.4L2232.4 1893.8L2082.7 1988.2C2069.1 1996.7 2065.1 2014.7 2073.6 2028.3C2079.1 2037.1 2088.5 2041.8 2098.2 2041.8C2103.5 2041.8 2108.9 2040.3 2113.7 2037.3L2302.2 1918.3C2310.6 1913.1 2315.7 1903.8 2315.7 1893.8Z" fill="url(#paint0_linear_5300_155)"/>
<path d="M1986.6 36.5C2511.3 36.5 2986.3 249.2 3330.1 593C3673.9 936.8 3886.6 1411.8 3886.6 1936.5C3886.6 2461.2 3674 2936.2 3330.1 3280C2986.3 3623.8 2511.3 3836.5 1986.6 3836.5C1461.9 3836.5 987.002 3623.8 643.102 3280C299.302 2936.2 86.6016 2461.2 86.6016 1936.5C86.6016 1411.8 299.302 936.8 643.102 593C987.002 249.2 1462 36.5 1986.6 36.5ZM3270.1 653C2941.6 324.5 2487.9 121.4 1986.6 121.4C1485.3 121.4 1031.6 324.6 703.202 653C374.702 981.5 171.602 1435.2 171.602 1936.5C171.602 2437.8 374.802 2891.5 703.202 3220C1031.7 3548.5 1485.4 3751.6 1986.7 3751.6C2488 3751.6 2941.7 3548.4 3270.2 3220C3598.7 2891.5 3801.8 2437.8 3801.8 1936.5C3801.8 1435.2 3598.6 981.5 3270.1 653Z" fill="url(#paint1_linear_5300_155)"/>
</g>
</g>
<defs>
<linearGradient id="paint0_linear_5300_155" x1="1470" y1="1065.5" x2="2384.5" y2="2686.5" gradientUnits="userSpaceOnUse">
<stop offset="0.0554998" stop-color="#BBFF00"/>
<stop offset="0.916894" stop-color="#299ED8"/>
</linearGradient>
<linearGradient id="paint1_linear_5300_155" x1="115" y1="1904.5" x2="3842.5" y2="1878.5" gradientUnits="userSpaceOnUse">
<stop stop-color="#299ED8"/>
<stop offset="1" stop-color="#BBFE01"/>
</linearGradient>
<clipPath id="clip0_5300_155">
<rect width="3873" height="3873" fill="white"/>
</clipPath>
</defs>
</svg>
